# xmcd
# Copyright (C) 1995-1998 Ti Kan
#
# Track frame offsets:
#       150
#       16630
#       27257
#       42020
#       61463
#       77060
#       95033
#       114023
#       132160
#       153104
#       168583
#       184337
#
# Disc length: 2650 seconds
#
# Revision: 0
# Processed by: cddbd v1.5.2PL0 Copyright (c) Steve Scherf et al.
# Submitted via: CD-Import v1.0
#
DISCID=8a0a580c
DTITLE=Madison Violet - No Fool For Trying
DYEAR=2009
DGENRE=
TTITLE0=The Ransom
TTITLE1=Lauralee
TTITLE2=No Fool For Trying (Reynolds Remix)
TTITLE3=Small Of My Heart
TTITLE4=Baby In The Black and White
TTITLE5=Hallways Of The Sage
TTITLE6=Crying
TTITLE7=The Woodshop
TTITLE8=Darlin'
TTITLE9=Best Part Of The Love
TTITLE10=Time And Tide
TTITLE11=No Fool For Trying
EXTD=
EXTT0=
EXTT1=
EXTT2=
EXTT3=
EXTT4=
EXTT5=
EXTT6=
EXTT7=
EXTT8=
EXTT9=
EXTT10=
EXTT11=
PLAYORDER=
